<svg width="51" height="49" viewBox="0 0 51 49" fill="none" xmlns="http://www.w3.org/2000/svg">
<rect width="50.5752" height="48.3101" rx="15" fill="#F3EFE9"/>
<path d="M35.2504 16.539L33.6288 14.649C33.3138 14.2665 32.8354 14.0303 32.2871 14.0303H18.2871C17.7388 14.0303 17.2604 14.2665 16.9338 14.649L15.3238 16.539C14.9854 16.9215 14.7871 17.4278 14.7871 17.9678V32.0303C14.7871 33.2678 15.8371 34.2803 17.1204 34.2803H33.4538C34.7371 34.2803 35.7871 33.2678 35.7871 32.0303V17.9678C35.7871 17.4278 35.5888 16.9215 35.2504 16.539ZM24.8788 29.949L18.8704 24.1553H22.9538V21.9053H27.6204V24.1553H31.7038L25.6954 29.949C25.4738 30.1628 25.1004 30.1628 24.8788 29.949ZM17.2604 16.2803L18.2054 15.1553H32.2054L33.3021 16.2803H17.2604Z" fill="#7C5C5C"/>
</svg>
